FFmpeg version SVN-r25716, Copyright (c) 2000-2010 the FFmpeg developers  built on Nov 10 2010 12:23:18 with gcc 4.1.2 20080704 (Red Hat 4.1.2-48)  configuration: --enable-libmp3lame --enable-shared --disable-mmx --arch=x86_64  libavutil     50.33. 0 / 50.33. 0  libavcore      0.12. 1 /  0.12. 1  libavcodec    52.94. 4 / 52.94. 4  libavformat   52.84. 0 / 52.84. 0  libavdevice   52. 2. 2 / 52. 2. 2  libavfilter    1.59. 0 /  1.59. 0  libswscale     0.12. 0 /  0.12. 0Input #0, mov,mp4,m4a,3gp,3g2,mj2, from '/RAID10/data/converted_video_files/12086.mov':  Metadata:    major_brand     : qt      minor_version   : 537199360    compatible_brands: qt    Duration: 00:00:05.00, start: 0.000000, bitrate: 14244 kb/s    Stream #0.0(eng): Video: png, rgb24, 512x550, 14242 kb/s, 5 fps, 5 tbr, 5 tbn, 5 tbc[buffer @ 0x5608420] w:512 h:550 pixfmt:rgb24[ffsink @ 0x5687ef0] auto-inserting filter 'auto-inserted scaler 0' between the filter 'src' and the filter 'out'[scale @ 0x5688210] w:512 h:550 fmt:rgb24 -> w:512 h:550 fmt:yuv420p flags:0x4Output #0, flv, to '/RAID10/data/converted_video_files/12086.flv':  Metadata:    encoder         : Lavf52.84.0    Stream #0.0(eng): Video: flv, yuv420p, 512x550, q=2-31, 600 kb/s, 1k tbn, 24 tbcStream mapping:  Stream #0.0 -> #0.0Press [q] to stop encodingframe=   23 fps=  0 q=5.9 size=     214kB time=4.46 bitrate= 392.6kbits/s    frame=   25 fps=  0 q=5.6 Lsize=     234kB time=4.83 bitrate= 397.0kbits/s    video:234kB audio:0kB global headers:0kB muxing overhead 0.254924%